<?xml version="1.0" encoding="UTF-8" standalone="no"?>

<svg viewbox="0 0 70 70" preserveAspectRatio="none" xmlns="http://www.w3.org/2000/svg">
    <circle r="17.5" cx="35" cy="35" fill="none" stroke="black" stroke-width="15" />
    <rect x="0" y="30" width="15" height="10" rx="4" />
    <rect x="55" y="30" width="15" height="10" rx="4" />
    <rect x="30" y="0" width="10" height="15" rx="4" />
    <rect x="30" y="55" width="10" height="15" rx="4" />
    <rect x="0" y="0" width="15" height="10" rx="4" transform="translate(10.2512626585, 5.2512626585) rotate(45, 0, 5)" />
    <rect x="0" y="0" width="15" height="10" rx="4" transform="translate(59.7487373415, 5.2512626585) rotate(135, 0, 5)" />
    <rect x="0" y="0" width="15" height="10" rx="4" transform="translate(59.7487373415, 54.7487373415) rotate(225, 0, 5)" />
    <rect x="0" y="0" width="15" height="10" rx="4" transform="translate(10.2512626585, 54.7487373415) rotate(315, 0, 5)" />
</svg>