<?xml version="1.0" encoding="UTF-8" standalone="no"?>

<svg viewBox="0 0 80 80" preserveAspectRatio="none" xmlns="http://www.w3.org/2000/svg">
    <circle r="17.5" cx="40" cy="40" style="fill: none; stroke: black; stroke-width: 15;" />
    <rect x="5" y="35" width="15" height="10" rx="4" style="fill: black; stroke: none;" />
    <rect x="60" y="35" width="15" height="10" rx="4" style="fill: black; stroke: none;" />
    <rect x="35" y="5" width="10" height="15" rx="4" style="fill: black; stroke: none;" />
    <rect x="35" y="60" width="10" height="15" rx="4" style="fill: black; stroke: none;" />
    <rect x="0" y="0" width="15" height="10" rx="4" style="fill: black; stroke: none;" transform="translate(15.2512626585, 10.2512626585) rotate(45, 0, 5)" />
    <rect x="0" y="0" width="15" height="10" rx="4" style="fill: black; stroke: none;" transform="translate(64.7487373415, 10.2512626585) rotate(135, 0, 5)" />
    <rect x="0" y="0" width="15" height="10" rx="4" style="fill: black; stroke: none;" transform="translate(64.7487373415, 59.7487373415) rotate(225, 0, 5)" />
    <rect x="0" y="0" width="15" height="10" rx="4" style="fill: black; stroke: none;" transform="translate(15.2512626585, 59.7487373415) rotate(315, 0, 5)" />
</svg>