<?xml version="1.0" encoding="UTF-8" standalone="no"?>

<svg viewBox="0 0 80 80" xmlns="http://www.w3.org/2000/svg">
    <circle r="14" cx="40" cy="40" fill="black" stroke="none" />
    <path d="M 42.0884191 24.1368822 A 16 16 0 0 0 37.9115809 24.1368822 C 37 24 34 20 38.5 16 Q 42 13 39 11 T 43 5 Q 39 9 42 11 C 43.5 12 46 15 42 18 Q 40 19.5 42 22 T 42.0884191 24.1368822" fill="black" stroke="none" />
    <path d="M 24.1368822 37.9115809 A 16 16 0 0 0 24.1368822 42.0884191 C 24 43 20 46 16 41.5 Q 13 38 11 41 T 5 37 Q 9 41 11 38 C 12 36.5 15 34 18 38 Q 19.5 40 22 38 T 24.1368822 37.9115809" fill="black" stroke="none" />
    <path d="M 55.8631178 42.0884191 A 16 16 0 0 0 55.8631178 37.9115809 C 56 37 60 34 64 38.5 Q 67 42 69 39 T 75 43 Q 71 39 69 42 C 68 43.5 65 46 62 42 Q 60.5 40 58 42 T 55.8631178 42.0884191" fill="black" stroke="none" />
    <path d="M 37.9115809 55.8631178 A 16 16 0 0 0 42.0884191 55.8631178 C 43 56 46 60 41.5 64 Q 38 67 41 69 T 37 75 Q 41 71 38 69 C 36.5 68 34 65 38 62 Q 40 60.5 38 58 T 37.9115809 55.8631178" fill="black" stroke="none" />
    <path d="M 35.8588953 24.5451868 A 16 16 0 0 0 32 26.1435935 L 31.9636479 20.5985298 Z" fill="black" stroke="none" />
    <path d="M 26.1435935 32 A 16 16 0 0 0 24.5451868 35.8588953 L 20.5985298 31.9636479 Z" fill="black" stroke="none" />
    <path d="M 24.5451868 44.1411047 A 16 16 0 0 0 26.1435935 48 L 20.5985298 48.0363521 Z" fill="black" stroke="none" />
    <path d="M 32 53.8564065 A 16 16 0 0 0 35.8588953 55.4548132 L 31.9636479 59.4014702 Z" fill="black" stroke="none" />
    <path d="M 44.1411047 55.4548132 A 16 16 0 0 0 48 53.8564065 L 48.0363521 59.4014702 Z" fill="black" stroke="none" />
    <path d="M 53.8564065 48 A 16 16 0 0 0 55.4548132 44.1411047 L 59.4014702 48.0363521 Z" fill="black" stroke="none" />
    <path d="M 55.4548132 35.8588953 A 16 16 0 0 0 53.8564065 32 L 59.4014702 31.9636479 Z" fill="black" stroke="none" />
    <path d="M 48 26.1435935 A 16 16 0 0 0 44.1411047 24.5451868 L 48.0363521 20.5985298 Z" fill="black" stroke="none" />
    <path d="M 30.2598171 27.3063466 A 16 16 0 0 0 27.3063466 30.2598171 L 20.9081169 20.9081169 Z" fill="black" stroke="none" />
    <path d="M 27.3063466 49.7401829 A 16 16 0 0 0 30.2598171 52.6936534 L 20.9081169 59.0918831 Z" fill="black" stroke="none" />
    <path d="M 49.7401829 52.6936534 A 16 16 0 0 0 52.6936534 49.7401829 L 59.0918831 59.0918831 Z" fill="black" stroke="none" />
    <path d="M 52.6936534 30.2598171 A 16 16 0 0 0 49.7401829 27.3063466 L 59.0918831 20.9081169 Z" fill="black" stroke="none" />
</svg>