<?xml version="1.0" encoding="UTF-8" standalone="no"?>

<svg viewBox="0 0 80 80" xmlns="http://www.w3.org/2000/svg">
	<path d="M 8 25 h 12 l 17.31671843 -8.6583592 A 1.85410196625 1.85410196625 0 0 1 40 18 v 44 A 1.85410196625 1.85410196625 0 0 1 37.31671843 63.6583592 L 20 55 h -12 a 3 3 0 0 1 -3 -3 v -24 a 3 3 0 0 1 3 -3" fill="black" stroke="none" />
	<path d="M 50.8253175473 33.75 a 12.5 12.5 0 0 1 0 12.5" fill="none" stroke="black" stroke-width="5" stroke-linecap="round" />
	<path d="M 59.4855715851 28.75 a 22.5 22.5 0 0 1 0 22.5" fill="none" stroke="black" stroke-width="5" stroke-linecap="round" />
	<path d="M 68.145825623 23.75 a 32.5 32.5 0 0 1 0 32.5" fill="none" stroke="black" stroke-width="5" stroke-linecap="round" />
</svg>