<?xml version="1.0" encoding="UTF-8" standalone="no"?>

<svg viewBox="0 0 80 80" xmlns="http://www.w3.org/2000/svg">
	<path d="M 6 25 h 14 l 19.10557281 -9.5527864 A 0.61803398875 0.61803398875 0 0 1 40 16 v 48 A 0.61803398875 0.61803398875 0 0 1 39.10557281 64.5527864 L 20 55 h -14 a 1 1 0 0 1 -1 -1 v -28 a 1 1 0 0 1 1 -1" fill="black" stroke="none" />
	<path d="M 50.8253175473 33.75 a 12.5 12.5 0 0 1 0 12.5" fill="none" stroke="black" stroke-width="5" stroke-linecap="round" />
	<path d="M 59.4855715851 28.75 a 22.5 22.5 0 0 1 0 22.5" fill="none" stroke="black" stroke-width="5" stroke-linecap="round" />
	<path d="M 68.145825623 23.75 a 32.5 32.5 0 0 1 0 32.5" fill="none" stroke="black" stroke-width="5" stroke-linecap="round" />
</svg>